<svg xmlns="http://www.w3.org/2000/svg" viewBox="0 0 800 800">
  <defs>
    <radialGradient id="g" cx="50%" cy="42%" r="60%"><stop offset="0" stop-color="#22332d"/><stop offset=".55" stop-color="#0b0f0f"/><stop offset="1" stop-color="#020303"/></radialGradient>
    <filter id="glow"><feGaussianBlur stdDeviation="5" result="b"/><feMerge><feMergeNode in="b"/><feMergeNode in="SourceGraphic"/></feMerge></filter>
  </defs>
  <rect width="800" height="800" fill="transparent"/>
  <path d="M400 42 716 166v228c0 181-126 300-316 364C210 694 84 575 84 394V166Z" fill="url(#g)" stroke="#b01624" stroke-width="16"/>
  <path d="M400 118 642 214v174c0 137-92 233-242 290-150-57-242-153-242-290V214Z" fill="none" stroke="#e6e0d2" stroke-width="4" opacity=".34"/>
  <circle cx="400" cy="353" r="126" fill="none" stroke="#8bf5b5" stroke-width="8" opacity=".78" filter="url(#glow)"/>
  <path d="M252 353c58-78 238-78 296 0-58 78-238 78-296 0Z" fill="#0b0e10" stroke="#e6e0d2" stroke-width="8"/>
  <circle cx="400" cy="353" r="44" fill="#b01624" stroke="#ff2b35" stroke-width="6" filter="url(#glow)"/>
  <path d="M400 170v112M400 424v112M217 353h93M490 353h93" stroke="#8bf5b5" stroke-width="6" opacity=".72"/>
  <text x="400" y="620" text-anchor="middle" fill="#e6e0d2" font-family="monospace" font-size="54" letter-spacing="8">GRAVESIGNAL</text>
  <text x="400" y="674" text-anchor="middle" fill="#b01624" font-family="monospace" font-size="30" letter-spacing="6">WE BURY THE SIGNAL</text>
</svg>
