<svg xmlns="http://www.w3.org/2000/svg" viewBox="0 0 1400 1800">
  <defs>
    <radialGradient id="g" cx="50%" cy="36%" r="78%">
      <stop offset="0%" stop-color="#1b211f"/>
      <stop offset="48%" stop-color="#070909"/>
      <stop offset="100%" stop-color="#010202"/>
    </radialGradient>
    <pattern id="grid" width="44" height="44" patternUnits="userSpaceOnUse">
      <path d="M44 0H0V44" fill="none" stroke="#8bf5b5" stroke-opacity=".055"/>
    </pattern>
    <filter id="glow"><feGaussianBlur stdDeviation="5" result="b"/><feMerge><feMergeNode in="b"/><feMergeNode in="SourceGraphic"/></feMerge></filter>
  </defs>
  <rect width="1400" height="1800" fill="url(#g)"/>
  <rect width="1400" height="1800" fill="url(#grid)"/>
  <g opacity=".38">
    <path d="M80 340C260 180 420 420 625 300C850 170 1030 270 1320 180" fill="none" stroke="#8bf5b5" stroke-opacity=".24"/>
    <path d="M80 1160C260 940 470 1100 700 990C930 880 1110 1060 1320 860" fill="none" stroke="#ff2b35" stroke-opacity=".25" stroke-dasharray="18 16"/>
    <circle cx="270" cy="680" r="5" fill="#ff2b35"/><circle cx="1115" cy="640" r="5" fill="#ff2b35"/><circle cx="710" cy="1050" r="5" fill="#8bf5b5"/>
  </g>
  <g transform="translate(700 675)" filter="url(#glow)">
    <path d="M0-330 286-165 286 165 0 330-286 165-286-165Z" fill="none" stroke="#b01624" stroke-width="9"/>
    <circle r="220" fill="none" stroke="#8bf5b5" stroke-width="3" stroke-opacity=".7"/>
    <circle r="158" fill="none" stroke="#e6e0d2" stroke-width="2" stroke-opacity=".55" stroke-dasharray="18 12"/>
    <path d="M-315 0C-190-160 190-160 315 0C190 160-190 160-315 0Z" fill="#050606" stroke="#e6e0d2" stroke-width="9"/>
    <circle r="86" fill="#0a0d0c" stroke="#ff2b35" stroke-width="10"/>
    <circle r="23" fill="#ff2b35"/>
    <path d="M0-395V-260M0 260V395M-395 0H-260M260 0H395" stroke="#8bf5b5" stroke-width="4"/>
  </g>
  <g font-family="monospace" letter-spacing="6">
    <text x="80" y="85" fill="#8bf5b5" font-size="28">MERIDIAN ARCHIVE NODE 43-B</text>
    <text x="80" y="132" fill="#ff2b35" font-size="22">BOOK 0 // THE UNSEALED ARCHIVE</text>
    <text x="700" y="1260" text-anchor="middle" fill="#e6e0d2" font-size="96" font-family="Arial Black, Impact, sans-serif" letter-spacing="-4">BLACK MERIDIAN</text>
    <text x="700" y="1335" text-anchor="middle" fill="#ff2b35" font-size="34">BOOK 0 // THE UNSEALED ARCHIVE</text>
    <text x="700" y="1448" text-anchor="middle" fill="#8bf5b5" font-size="24">STATUS: WITNESS DETECTED</text>
    <text x="700" y="1548" text-anchor="middle" fill="#e6e0d2" font-size="27" letter-spacing="2">THE TRUTH WAS NEVER MISSING. IT WAS SEALED.</text>
  </g>
  <rect x="80" y="1630" width="1240" height="2" fill="#ff2b35" opacity=".55"/>
  <text x="80" y="1685" fill="#8bf5b5" font-size="22" font-family="monospace">BEGIN PLAYBACK // DEAD MAN PROTOCOL // DO NOT VERIFY THE SOURCE</text>
</svg>
