<svg xmlns="http://www.w3.org/2000/svg" viewBox="0 0 1200 800" role="img" aria-label="BISHOP">
  <defs>
    <radialGradient id="g" cx="50%" cy="42%" r="70%">
      <stop offset="0%" stop-color="#182026"/>
      <stop offset="55%" stop-color="#07090b"/>
      <stop offset="100%" stop-color="#010203"/>
    </radialGradient>
    <filter id="noise"><feTurbulence type="fractalNoise" baseFrequency="0.9" numOctaves="3" stitchTiles="stitch"/><feColorMatrix type="saturate" values="0"/><feComponentTransfer><feFuncA type="table" tableValues="0 0.12"/></feComponentTransfer></filter>
  </defs>
  <rect width="1200" height="800" fill="url(#g)"/>
  <rect width="1200" height="800" filter="url(#noise)" opacity="0.5"/>
  <g opacity="0.32" stroke="#d7d0c1" stroke-width="2" fill="none">
    <path d="M120 640 C290 520 380 300 600 240 C820 300 910 520 1080 640"/>
    <path d="M180 210 H1020 M180 590 H1020 M250 150 V660 M950 150 V660"/>
    <circle cx="600" cy="400" r="210"/>
    <circle cx="600" cy="400" r="86"/>
  </g>
  <g transform="translate(600 400)">
    <path d="M-260 0 C-170 -120 -75 -170 0 -170 C75 -170 170 -120 260 0 C170 120 75 170 0 170 C-75 170 -170 120 -260 0Z" fill="none" stroke="#c0a96e" stroke-width="12" opacity="0.86"/>
    <circle r="58" fill="none" stroke="#e7dfce" stroke-width="9" opacity="0.78"/>
    <path d="M0 -105 L36 -20 L126 -18 L54 34 L78 120 L0 70 L-78 120 L-54 34 L-126 -18 L-36 -20Z" fill="#c0a96e" opacity="0.64"/>
  </g>
  <text x="600" y="98" fill="#e7dfce" font-family="monospace" font-size="44" text-anchor="middle" letter-spacing="5">BISHOP</text>
  <text x="600" y="710" fill="#c0a96e" font-family="monospace" font-size="26" text-anchor="middle" letter-spacing="4">LEDGER GHOST</text>
  <text x="62" y="62" fill="#e7dfce" font-family="monospace" font-size="18" opacity="0.55">MERIDIAN // BLACK BUDGET ARCHIVE</text>
  <text x="62" y="752" fill="#e7dfce" font-family="monospace" font-size="18" opacity="0.45">NO PUBLIC CHAIN OF CUSTODY</text>
</svg>