<svg xmlns="http://www.w3.org/2000/svg" viewBox="0 0 1200 760">
  <defs>
    <linearGradient id="bg" x1="0" x2="1"><stop offset="0" stop-color="#070707"/><stop offset=".55" stop-color="#1a1510"/><stop offset="1" stop-color="#030303"/></linearGradient>
    <radialGradient id="r" cx="50%" cy="48%" r="45%"><stop offset="0" stop-color="#b01624" stop-opacity=".52"/><stop offset=".32" stop-color="#1e0f0f" stop-opacity=".75"/><stop offset="1" stop-color="#030303" stop-opacity="0"/></radialGradient>
    <filter id="noise"><feTurbulence baseFrequency=".8" numOctaves="3"/><feColorMatrix type="saturate" values="0"/><feComponentTransfer><feFuncA type="table" tableValues="0 .18"/></feComponentTransfer></filter>
  </defs>
  <rect width="1200" height="760" fill="url(#bg)"/>
  <rect width="1200" height="760" fill="url(#r)"/>
  <rect width="1200" height="760" filter="url(#noise)" opacity=".4"/>
  <g opacity=".3" stroke="#e6e0d2" stroke-width="1">
    <path d="M70 70h1060v620H70z" fill="none"/>
    <path d="M120 120h960v520H120z" fill="none" stroke-dasharray="8 12"/>
    <path d="M600 90v580M130 380h940"/>
  </g>
  <g transform="translate(600 350)">
    <path d="M0-240 208-120v240L0 240-208 120v-240Z" fill="none" stroke="#b01624" stroke-width="8"/>
    <circle r="126" fill="none" stroke="#8bf5b5" stroke-width="5" opacity=".82"/>
    <path d="M-180 0c76-96 284-96 360 0-76 96-284 96-360 0Z" fill="none" stroke="#e6e0d2" stroke-width="8"/>
    <circle r="50" fill="#090909" stroke="#ff2b35" stroke-width="7"/>
    <circle r="14" fill="#ff2b35"/>
  </g>
  <text x="600" y="92" text-anchor="middle" fill="#8bf5b5" font-family="monospace" font-size="26" letter-spacing="9">MERIDIAN ARCHIVE NODE 43-B</text>
  <text x="600" y="650" text-anchor="middle" fill="#e6e0d2" font-family="Arial Black, Impact, sans-serif" font-size="96" letter-spacing="-8">BLACK MERIDIAN</text>
  <text x="600" y="704" text-anchor="middle" fill="#ff2b35" font-family="monospace" font-size="29" letter-spacing="10">THE APOCRYPHA DIRECTIVE</text>
</svg>
