<svg xmlns="http://www.w3.org/2000/svg" viewBox="0 0 1400 1800">
  <defs>
    <radialGradient id="g" cx="50%" cy="42%" r="72%">
      <stop offset="0%" stop-color="#18211e"/>
      <stop offset="42%" stop-color="#070909"/>
      <stop offset="100%" stop-color="#010202"/>
    </radialGradient>
    <filter id="glow">
      <feGaussianBlur stdDeviation="5" result="b"/>
      <feMerge><feMergeNode in="b"/><feMergeNode in="SourceGraphic"/></feMerge>
    </filter>
    <pattern id="grid" width="48" height="48" patternUnits="userSpaceOnUse">
      <path d="M48 0H0V48" fill="none" stroke="#8bf5b5" stroke-opacity=".055"/>
    </pattern>
  </defs>
  <rect width="1400" height="1800" fill="url(#g)"/>
  <rect width="1400" height="1800" fill="url(#grid)"/>
  <g opacity=".35">
    <path d="M75 200C300 120 490 270 650 220C840 160 1050 70 1320 200" fill="none" stroke="#8bf5b5" stroke-opacity=".25"/>
    <path d="M90 1120C340 930 520 1090 700 1010C970 890 1120 1040 1320 930" fill="none" stroke="#ff2b35" stroke-opacity=".25" stroke-dasharray="20 18"/>
    <circle cx="245" cy="540" r="5" fill="#ff2b35"/><circle cx="1125" cy="760" r="5" fill="#ff2b35"/><circle cx="740" cy="1060" r="5" fill="#8bf5b5"/>
  </g>
  <g transform="translate(700 650)" filter="url(#glow)">
    <path d="M0-330 286-165 286 165 0 330-286 165-286-165Z" fill="none" stroke="#b01624" stroke-width="9"/>
    <circle r="210" fill="none" stroke="#8bf5b5" stroke-width="3" stroke-opacity=".7"/>
    <circle r="156" fill="none" stroke="#e6e0d2" stroke-width="2" stroke-opacity=".55" stroke-dasharray="18 12"/>
    <path d="M-310 0C-190-160 190-160 310 0C190 160-190 160-310 0Z" fill="#050606" stroke="#e6e0d2" stroke-width="9"/>
    <circle r="86" fill="#0a0d0c" stroke="#ff2b35" stroke-width="10"/>
    <circle r="23" fill="#ff2b35"/>
    <path d="M0-390V-260M0 260V390M-390 0H-260M260 0H390" stroke="#8bf5b5" stroke-width="4"/>
  </g>
  <g font-family="monospace" letter-spacing="6">
    <text x="80" y="85" fill="#8bf5b5" font-size="28">MERIDIAN ARCHIVE NODE 43-B</text>
    <text x="80" y="132" fill="#ff2b35" font-size="22">OMEGA BLACK // WITNESS DETECTED</text>
    <text x="700" y="1255" text-anchor="middle" fill="#e6e0d2" font-size="96" font-family="Arial Black, Impact, sans-serif" letter-spacing="-4">BLACK MERIDIAN</text>
    <text x="700" y="1328" text-anchor="middle" fill="#ff2b35" font-size="34">BOOK I // THE APOCRYPHA DIRECTIVE</text>
    <text x="700" y="1445" text-anchor="middle" fill="#8bf5b5" font-size="24">V4 // NIGHT ARCHIVE READER</text>
    <text x="700" y="1545" text-anchor="middle" fill="#e6e0d2" font-size="26" letter-spacing="2">SOME WARS ARE FOUGHT TO DECIDE WHAT REALITY IS ALLOWED TO REMEMBER.</text>
  </g>
  <rect x="80" y="1630" width="1240" height="2" fill="#ff2b35" opacity=".55"/>
  <text x="80" y="1685" fill="#8bf5b5" font-size="22" font-family="monospace">BEGIN PLAYBACK // DO NOT VERIFY THE SOURCE // TRUST LESS</text>
</svg>
